<svg xmlns="http://www.w3.org/2000/svg" xmlns:xlink="http://www.w3.org/1999/xlink" width="192" zoomAndPan="magnify" viewBox="0 0 192 191.999996" height="191.999996" preserveAspectRatio="xMidYMid meet" version="1.0"><defs><g/><clipPath id="id1"><path d="M 69.679688 36.46875 L 121.828125 36.46875 L 121.828125 101.652344 L 69.679688 101.652344 Z M 69.679688 36.46875 " clip-rule="nonzero"/></clipPath></defs><path fill="rgb(100%, 100%, 100%)" d="M 96 0 C 42.980469 0 0 42.980469 0 96 C 0 149.019531 42.980469 192 96 192 C 149.019531 192 192 149.019531 192 96 C 192 42.980469 149.019531 0 96 0 " fill-opacity="1" fill-rule="nonzero"/><g clip-path="url(#id1)"><path fill="rgb(32.159424%, 44.309998%, 100%)" d="M 95.382812 52.339844 C 95.402344 52.339844 95.457031 52.371094 95.503906 52.40625 C 95.609375 52.480469 95.6875 52.574219 95.78125 52.722656 C 95.867188 52.847656 95.878906 53.097656 95.816406 53.367188 C 95.761719 53.597656 95.769531 54.152344 95.832031 54.613281 C 95.859375 54.8125 95.898438 55.257812 95.921875 55.601562 C 95.976562 56.410156 96.089844 57.617188 96.15625 58.09375 C 96.25 58.761719 96.433594 59.476562 96.566406 59.703125 C 96.671875 59.886719 96.707031 60 96.671875 60.066406 C 96.65625 60.097656 96.628906 60.113281 96.59375 60.113281 C 96.535156 60.113281 96.457031 60.078125 96.347656 60.003906 C 96.0625 59.8125 95.6875 59.722656 95.144531 59.722656 C 95.09375 59.722656 95.042969 59.722656 94.988281 59.722656 C 94.921875 59.726562 94.871094 59.726562 94.824219 59.726562 C 94.660156 59.726562 94.605469 59.714844 94.511719 59.667969 C 94.355469 59.597656 94.109375 59.359375 94.035156 59.21875 C 94.007812 59.164062 93.960938 59.089844 93.929688 59.050781 C 93.902344 59.007812 93.808594 58.875 93.730469 58.753906 C 93.640625 58.617188 93.398438 58.347656 93.109375 58.0625 C 92.847656 57.800781 92.539062 57.464844 92.417969 57.308594 C 92.0625 56.847656 91.363281 55.808594 91.257812 55.582031 C 90.941406 54.929688 90.746094 54.410156 90.734375 54.179688 C 90.714844 53.90625 90.941406 53.761719 91.578125 53.621094 C 92.007812 53.527344 92.363281 53.433594 92.753906 53.308594 C 92.867188 53.269531 93.039062 53.21875 93.128906 53.191406 C 93.21875 53.164062 93.304688 53.132812 93.320312 53.117188 C 93.335938 53.105469 93.398438 53.082031 93.457031 53.070312 C 93.511719 53.058594 93.597656 53.03125 93.648438 53.007812 C 93.699219 52.988281 93.8125 52.941406 93.902344 52.90625 C 94.238281 52.78125 94.515625 52.671875 94.546875 52.648438 C 94.632812 52.589844 95.296875 52.34375 95.382812 52.339844 Z M 102.046875 36.464844 C 101.910156 36.464844 101.753906 36.464844 101.574219 36.472656 C 101.027344 36.488281 100.867188 36.503906 100.640625 36.554688 C 100.082031 36.695312 99.617188 36.894531 99.363281 37.101562 C 99.296875 37.152344 99.191406 37.234375 99.125 37.28125 C 99.007812 37.363281 98.65625 37.722656 98.460938 37.964844 C 98.355469 38.085938 98.351562 38.089844 97.980469 38.167969 C 97.378906 38.292969 96.914062 38.476562 96.691406 38.679688 C 96.421875 38.921875 96.054688 39.503906 95.710938 40.246094 C 95.3125 41.097656 95.210938 41.296875 95.003906 41.613281 C 94.671875 42.121094 94.414062 42.351562 93.980469 42.507812 C 93.652344 42.625 93.566406 42.671875 93.324219 42.875 C 93.070312 43.082031 93.027344 43.128906 92.945312 43.300781 C 92.882812 43.429688 92.882812 43.488281 92.878906 44.390625 C 92.875 45.261719 92.871094 45.359375 92.8125 45.515625 C 92.703125 45.828125 92.351562 46.285156 92.121094 46.40625 C 92.074219 46.429688 92.039062 46.460938 92.039062 46.476562 C 92.039062 46.492188 92.003906 46.527344 91.957031 46.550781 L 91.878906 46.597656 L 91.984375 46.597656 C 92.097656 46.597656 92.378906 46.46875 92.734375 46.253906 C 92.863281 46.175781 92.949219 46.140625 93.015625 46.140625 C 93.0625 46.140625 93.101562 46.160156 93.140625 46.199219 C 93.238281 46.300781 93.269531 46.414062 93.273438 46.671875 C 93.277344 46.894531 93.28125 46.910156 93.347656 46.941406 C 93.371094 46.949219 93.390625 46.953125 93.40625 46.953125 C 93.4375 46.953125 93.46875 46.933594 93.527344 46.890625 C 93.71875 46.742188 93.8125 46.59375 93.84375 46.390625 C 93.894531 46.035156 94.027344 45.871094 94.445312 45.65625 C 94.828125 45.457031 95.128906 45.148438 95.390625 44.675781 C 95.507812 44.460938 95.605469 44.347656 95.667969 44.347656 C 95.679688 44.347656 95.695312 44.351562 95.703125 44.367188 C 95.71875 44.390625 95.734375 44.53125 95.734375 44.679688 C 95.738281 44.957031 95.78125 45.074219 95.875 45.074219 C 95.882812 45.074219 95.890625 45.074219 95.898438 45.074219 C 96.023438 45.054688 96.066406 44.914062 96.082031 44.464844 C 96.097656 43.972656 96.148438 43.789062 96.304688 43.664062 C 96.390625 43.59375 96.464844 43.558594 96.519531 43.558594 C 96.546875 43.558594 96.570312 43.566406 96.585938 43.589844 C 96.667969 43.679688 96.53125 44.378906 96.339844 44.882812 C 96.253906 45.101562 96.234375 45.222656 96.273438 45.222656 C 96.324219 45.222656 96.492188 45.101562 96.53125 45.035156 C 96.554688 44.996094 96.632812 44.828125 96.695312 44.664062 C 96.992188 43.933594 97.183594 43.59375 97.449219 43.359375 C 97.535156 43.285156 97.640625 43.171875 97.683594 43.105469 C 97.761719 42.992188 97.765625 42.960938 97.757812 42.695312 C 97.757812 42.484375 97.738281 42.351562 97.679688 42.1875 C 97.589844 41.90625 97.574219 41.625 97.648438 41.585938 C 97.675781 41.574219 97.726562 41.546875 97.75 41.53125 C 97.789062 41.515625 97.800781 41.480469 97.792969 41.421875 C 97.765625 41.242188 97.769531 41.074219 97.800781 41.058594 C 97.808594 41.058594 97.816406 41.054688 97.820312 41.054688 C 97.882812 41.054688 97.933594 41.15625 97.9375 41.28125 C 97.941406 41.488281 98.035156 42.132812 98.089844 42.375 C 98.21875 42.90625 98.449219 43.339844 98.734375 43.574219 C 98.78125 43.617188 98.949219 43.726562 99.109375 43.824219 C 99.574219 44.105469 99.691406 44.34375 99.703125 45.019531 C 99.707031 45.3125 99.695312 45.402344 99.644531 45.535156 C 99.609375 45.625 99.566406 45.71875 99.546875 45.742188 C 99.53125 45.769531 99.496094 45.828125 99.472656 45.875 C 99.398438 46.035156 99.125 46.3125 98.960938 46.394531 C 98.875 46.4375 98.679688 46.503906 98.523438 46.546875 C 98.367188 46.585938 98.070312 46.667969 97.867188 46.71875 C 97.285156 46.875 96.875 47.003906 96.519531 47.136719 C 96.433594 47.171875 96.308594 47.21875 96.253906 47.238281 C 95.609375 47.484375 94.433594 48.089844 93.628906 48.605469 C 92.957031 49.03125 92.851562 49.105469 92.644531 49.285156 C 92.542969 49.371094 92.394531 49.496094 92.3125 49.5625 C 92.230469 49.628906 92.097656 49.738281 92.019531 49.808594 C 91.941406 49.882812 91.78125 50.007812 91.664062 50.089844 C 91.40625 50.269531 90.582031 50.777344 90.273438 50.945312 C 90.152344 51.011719 89.964844 51.121094 89.859375 51.183594 C 89.75 51.246094 89.578125 51.347656 89.472656 51.40625 C 89.363281 51.464844 89.261719 51.53125 89.246094 51.546875 C 89.230469 51.566406 89.0625 51.683594 88.875 51.8125 C 88.160156 52.292969 88.089844 52.339844 87.761719 52.613281 C 87.398438 52.914062 87.355469 52.960938 87.242188 53.199219 C 87.054688 53.59375 87.027344 54.390625 87.179688 54.9375 C 87.253906 55.203125 87.46875 55.671875 87.59375 55.835938 C 88.101562 56.503906 88.246094 56.660156 88.8125 57.210938 C 90.441406 58.792969 90.679688 58.992188 91.539062 59.527344 C 91.714844 59.636719 91.90625 59.773438 91.964844 59.828125 C 92.285156 60.128906 92.632812 60.601562 92.910156 61.109375 C 93.511719 62.207031 93.867188 62.667969 94.402344 63.003906 C 94.535156 63.09375 94.730469 63.25 94.832031 63.351562 C 95.046875 63.574219 95.175781 63.65625 95.308594 63.65625 C 95.308594 63.65625 95.3125 63.65625 95.3125 63.65625 C 95.316406 63.65625 95.316406 63.65625 95.320312 63.65625 C 95.464844 63.65625 95.621094 63.730469 95.621094 63.800781 C 95.621094 63.882812 95.53125 64.082031 95.355469 64.359375 C 95.171875 64.65625 94.671875 65.558594 94.558594 65.804688 C 94.296875 66.359375 94.121094 66.890625 93.988281 67.5 C 93.933594 67.753906 93.925781 67.871094 93.9375 68.589844 C 93.945312 69.246094 93.957031 69.441406 94 69.632812 C 94.03125 69.765625 94.070312 69.929688 94.085938 70.003906 C 94.136719 70.214844 94.230469 70.441406 94.398438 70.761719 C 94.566406 71.085938 94.613281 71.261719 94.5625 71.445312 C 94.535156 71.5625 94.324219 71.964844 94.136719 72.257812 C 93.890625 72.648438 93.410156 73.75 93.167969 74.480469 C 93.074219 74.765625 92.816406 75.472656 92.644531 75.921875 C 92.554688 76.167969 92.414062 76.535156 92.34375 76.734375 C 92.269531 76.929688 92.199219 77.121094 92.183594 77.152344 C 92.167969 77.1875 92.117188 77.328125 92.066406 77.46875 C 92.019531 77.605469 91.886719 77.925781 91.773438 78.171875 C 91.65625 78.421875 91.550781 78.671875 91.53125 78.730469 C 91.425781 79.035156 91.210938 79.472656 91.105469 79.605469 C 90.910156 79.839844 90.628906 79.960938 90.246094 79.960938 C 89.867188 79.960938 89.386719 79.839844 88.796875 79.605469 C 88.300781 79.40625 87.921875 79.304688 87.425781 79.234375 C 87.117188 79.191406 86.742188 79.167969 86.417969 79.167969 C 86.210938 79.167969 86.023438 79.175781 85.878906 79.195312 C 85.351562 79.265625 85.027344 79.324219 84.816406 79.378906 C 84.613281 79.429688 84.527344 79.449219 83.785156 79.648438 C 83.28125 79.78125 83.261719 79.789062 82.785156 79.902344 C 82.554688 79.960938 82.277344 80.023438 82.167969 80.042969 C 81.972656 80.082031 81.695312 80.152344 81.410156 80.234375 C 81.324219 80.253906 81.210938 80.28125 81.15625 80.296875 C 81.097656 80.304688 80.96875 80.34375 80.871094 80.375 C 80.546875 80.476562 80.292969 80.53125 79.554688 80.660156 C 79.457031 80.679688 79.21875 80.707031 79.03125 80.730469 C 78.84375 80.75 78.535156 80.78125 78.355469 80.800781 C 78.191406 80.820312 77.90625 80.832031 77.699219 80.832031 C 77.675781 80.832031 77.65625 80.832031 77.636719 80.832031 C 77.140625 80.824219 77.054688 80.789062 76.566406 80.375 C 76.441406 80.269531 76.214844 80.085938 76.0625 79.964844 C 75.707031 79.679688 75.085938 79.082031 74.929688 78.875 C 74.699219 78.566406 74.542969 78.441406 74.355469 78.441406 C 74.308594 78.441406 74.257812 78.449219 74.203125 78.464844 C 74.125 78.484375 74.011719 78.539062 73.949219 78.582031 C 73.796875 78.691406 73.34375 79.167969 73.175781 79.394531 C 73.105469 79.496094 72.996094 79.640625 72.929688 79.726562 C 72.585938 80.183594 72.234375 80.789062 72.070312 81.21875 C 71.925781 81.582031 71.898438 81.703125 71.875 82.070312 C 71.839844 82.613281 71.78125 82.945312 71.695312 83.078125 C 71.660156 83.136719 71.503906 83.332031 71.359375 83.515625 C 71.210938 83.695312 71.054688 83.902344 71.011719 83.972656 C 70.96875 84.042969 70.863281 84.207031 70.777344 84.339844 C 70.242188 85.191406 69.917969 85.984375 69.753906 86.828125 C 69.675781 87.226562 69.679688 88.113281 69.761719 88.488281 C 69.882812 89.054688 70.035156 89.390625 70.257812 89.554688 C 70.371094 89.636719 70.609375 89.699219 70.777344 89.699219 C 70.824219 89.699219 70.863281 89.695312 70.894531 89.6875 C 71.058594 89.640625 71.085938 89.617188 71.835938 88.921875 C 72.015625 88.757812 72.148438 88.546875 72.238281 88.289062 C 72.351562 87.957031 72.4375 87.757812 72.511719 87.636719 C 72.554688 87.574219 72.828125 87.285156 73.113281 86.992188 C 73.402344 86.703125 73.757812 86.332031 73.902344 86.164062 C 74.046875 86 74.265625 85.785156 74.386719 85.6875 C 74.511719 85.589844 74.632812 85.496094 74.65625 85.472656 C 74.679688 85.453125 74.765625 85.378906 74.851562 85.3125 C 74.929688 85.25 75.152344 85.039062 75.34375 84.855469 C 75.628906 84.566406 75.738281 84.476562 75.886719 84.476562 C 75.933594 84.476562 75.980469 84.488281 76.039062 84.5 C 76.117188 84.519531 76.207031 84.527344 76.292969 84.527344 C 76.402344 84.527344 76.503906 84.511719 76.5625 84.480469 C 76.609375 84.457031 76.746094 84.324219 76.867188 84.1875 C 77.210938 83.796875 77.128906 83.816406 78.730469 83.796875 C 79.011719 83.792969 79.265625 83.789062 79.488281 83.789062 C 79.921875 83.789062 80.222656 83.796875 80.351562 83.8125 C 80.515625 83.828125 80.859375 83.851562 81.121094 83.863281 C 81.378906 83.875 81.777344 83.902344 82.007812 83.921875 C 82.941406 84.011719 83.402344 84.042969 84.097656 84.042969 C 84.261719 84.042969 84.441406 84.039062 84.644531 84.039062 C 85.3125 84.027344 85.789062 84.007812 85.949219 83.980469 C 86.40625 83.90625 87.269531 83.859375 87.925781 83.859375 C 88.160156 83.859375 88.367188 83.863281 88.523438 83.878906 C 88.839844 83.902344 89.226562 83.964844 89.445312 84.015625 C 89.511719 84.035156 89.679688 84.070312 89.824219 84.097656 C 89.964844 84.125 90.234375 84.183594 90.425781 84.222656 C 90.84375 84.3125 91.535156 84.398438 91.851562 84.398438 C 91.859375 84.398438 91.867188 84.398438 91.875 84.398438 C 92.121094 84.394531 92.410156 84.335938 92.675781 84.234375 C 93.011719 84.101562 93.578125 83.710938 93.953125 83.34375 C 94.234375 83.066406 94.765625 82.441406 95 82.113281 C 95.507812 81.402344 95.8125 81.058594 96.375 80.574219 C 97.578125 79.542969 97.789062 79.324219 98.175781 78.738281 C 98.347656 78.480469 98.730469 77.96875 98.902344 77.773438 C 99.1875 77.445312 99.5 76.972656 99.558594 76.777344 C 99.578125 76.710938 99.628906 76.609375 99.667969 76.542969 C 99.710938 76.46875 99.738281 76.441406 99.773438 76.441406 C 99.785156 76.441406 99.792969 76.445312 99.804688 76.445312 C 99.839844 76.457031 100.171875 76.753906 100.539062 77.109375 C 100.90625 77.457031 101.269531 77.800781 101.347656 77.859375 C 101.628906 78.101562 102.710938 79.160156 102.875 79.359375 C 102.96875 79.472656 103.25 79.765625 103.496094 80.007812 C 103.839844 80.347656 104.023438 80.5 104.253906 80.644531 C 104.417969 80.75 104.609375 80.878906 104.671875 80.925781 C 104.796875 81.019531 105.070312 81.347656 105.363281 81.746094 C 105.457031 81.871094 105.691406 82.136719 105.886719 82.335938 C 106.308594 82.757812 106.417969 82.945312 106.542969 83.441406 C 106.566406 83.53125 106.597656 83.660156 106.617188 83.722656 C 106.636719 83.789062 106.667969 83.996094 106.6875 84.1875 C 106.710938 84.375 106.734375 84.539062 106.738281 84.546875 C 106.746094 84.554688 106.769531 84.878906 106.792969 85.261719 C 106.84375 86.050781 106.945312 86.957031 107.015625 87.21875 C 107.039062 87.3125 107.101562 87.542969 107.144531 87.730469 C 107.265625 88.226562 107.503906 88.957031 107.636719 89.234375 C 107.652344 89.265625 107.703125 89.40625 107.757812 89.542969 C 107.835938 89.753906 108.234375 90.53125 108.308594 90.625 C 108.324219 90.640625 108.371094 90.714844 108.414062 90.789062 C 108.527344 90.988281 109.066406 91.832031 109.136719 91.929688 C 109.167969 91.976562 109.238281 92.074219 109.285156 92.148438 C 109.441406 92.382812 109.808594 92.921875 110.015625 93.230469 C 110.21875 93.523438 110.640625 94.214844 110.859375 94.605469 C 110.988281 94.824219 111.117188 95.058594 111.15625 95.125 C 111.191406 95.1875 111.28125 95.34375 111.351562 95.464844 C 111.421875 95.585938 111.621094 95.96875 111.800781 96.316406 C 112.171875 97.03125 112.175781 97.039062 112.042969 97.449219 C 111.941406 97.765625 111.933594 98.050781 112.011719 98.390625 C 112.097656 98.738281 112.28125 99.027344 112.691406 99.460938 C 112.859375 99.636719 112.953125 99.769531 113.066406 99.992188 C 113.269531 100.394531 113.417969 100.707031 113.484375 100.867188 C 113.570312 101.078125 113.636719 101.199219 113.710938 101.285156 C 113.832031 101.429688 114.089844 101.570312 114.316406 101.617188 C 114.410156 101.636719 114.46875 101.648438 114.515625 101.648438 C 114.5625 101.648438 114.605469 101.636719 114.675781 101.613281 C 114.976562 101.507812 115.21875 101.402344 115.570312 101.21875 C 115.871094 101.0625 115.984375 100.984375 116.195312 100.785156 C 116.335938 100.652344 116.53125 100.476562 116.632812 100.398438 C 116.878906 100.207031 116.992188 100.066406 117.03125 99.914062 C 117.097656 99.652344 117.148438 99.53125 117.222656 99.472656 C 117.296875 99.414062 117.726562 99.253906 117.808594 99.253906 C 117.828125 99.253906 117.941406 99.222656 118.054688 99.179688 C 118.546875 99.011719 119.867188 98 120.726562 97.128906 C 121.191406 96.664062 121.289062 96.523438 121.46875 96.050781 C 121.5 95.96875 121.5625 95.800781 121.613281 95.675781 C 121.742188 95.339844 121.824219 94.882812 121.808594 94.621094 C 121.777344 94.207031 121.597656 93.71875 121.410156 93.53125 C 121.289062 93.417969 121.199219 93.375 120.992188 93.324219 C 120.945312 93.3125 120.898438 93.308594 120.847656 93.308594 C 120.613281 93.308594 120.3125 93.4375 119.714844 93.78125 C 119.578125 93.859375 119.390625 93.957031 119.214844 94.035156 C 118.035156 94.582031 118.011719 94.589844 116.847656 94.640625 C 116.324219 94.664062 115.808594 94.703125 115.609375 94.734375 C 115.414062 94.765625 115.234375 94.78125 115.070312 94.78125 C 114.75 94.78125 114.503906 94.722656 114.378906 94.605469 C 114.261719 94.503906 114.257812 94.488281 113.929688 93.546875 C 113.894531 93.441406 113.816406 93.253906 113.757812 93.132812 C 113.460938 92.523438 113.398438 92.390625 113.273438 92.085938 C 113.199219 91.898438 113.097656 91.628906 113.050781 91.484375 C 113.007812 91.335938 112.949219 91.152344 112.921875 91.070312 C 112.898438 90.992188 112.878906 90.90625 112.878906 90.878906 C 112.878906 90.851562 112.847656 90.734375 112.816406 90.621094 C 112.757812 90.421875 112.714844 90.242188 112.558594 89.535156 C 112.519531 89.363281 112.453125 89.074219 112.410156 88.894531 C 112.367188 88.714844 112.308594 88.472656 112.28125 88.359375 C 112.21875 88.109375 111.867188 87.019531 111.714844 86.605469 C 111.625 86.363281 111.4375 85.925781 111.300781 85.628906 C 111.269531 85.558594 111.203125 85.414062 111.09375 85.152344 C 111 84.929688 110.882812 84.5625 110.8125 84.253906 C 110.746094 83.976562 110.730469 83.273438 110.777344 82.925781 C 110.796875 82.796875 110.8125 82.480469 110.808594 82.222656 C 110.804688 81.824219 110.792969 81.71875 110.730469 81.519531 C 110.628906 81.179688 110.390625 80.71875 110.144531 80.394531 C 109.902344 80.074219 109.644531 79.722656 109.492188 79.503906 C 109.359375 79.316406 109.082031 78.816406 108.765625 78.199219 C 108.511719 77.699219 108.480469 77.636719 108.007812 76.65625 C 107.839844 76.3125 107.691406 76.011719 107.679688 75.980469 C 107.664062 75.953125 107.574219 75.765625 107.484375 75.566406 C 107.394531 75.367188 107.246094 75.066406 107.164062 74.894531 C 107.078125 74.722656 106.972656 74.507812 106.929688 74.417969 C 106.496094 73.519531 106.289062 73.132812 106.097656 72.824219 C 106.058594 72.765625 106.011719 72.683594 105.988281 72.640625 C 105.96875 72.601562 105.9375 72.546875 105.921875 72.523438 C 105.90625 72.5 105.789062 72.308594 105.664062 72.101562 C 105.453125 71.761719 105.285156 71.507812 105.054688 71.183594 C 104.890625 70.957031 104.578125 70.582031 104.210938 70.175781 C 103.816406 69.738281 103.605469 69.449219 103.472656 69.144531 C 103.402344 68.980469 103.394531 68.921875 103.390625 68.617188 C 103.386719 68.296875 103.394531 68.25 103.503906 67.910156 C 103.570312 67.714844 103.675781 67.429688 103.746094 67.28125 C 103.964844 66.804688 104.246094 65.941406 104.375 65.363281 C 104.457031 64.976562 104.507812 64.367188 104.53125 63.527344 C 104.539062 63.121094 104.566406 62.585938 104.589844 62.332031 C 104.609375 62.078125 104.632812 61.789062 104.640625 61.6875 C 104.660156 61.480469 104.761719 60.972656 104.863281 60.582031 C 104.960938 60.203125 105.066406 59.683594 105.082031 59.472656 C 105.113281 59.148438 105.207031 58.488281 105.25 58.292969 C 105.273438 58.183594 105.324219 57.90625 105.363281 57.679688 C 105.402344 57.445312 105.46875 57.191406 105.507812 57.101562 C 105.585938 56.933594 105.722656 56.792969 105.808594 56.789062 C 105.941406 56.792969 106.078125 56.988281 106.214844 57.382812 C 106.367188 57.820312 106.628906 58.355469 106.890625 58.761719 C 106.941406 58.84375 107.007812 58.945312 107.035156 58.996094 C 107.222656 59.324219 107.648438 59.804688 107.871094 59.9375 C 108.117188 60.085938 108.609375 60.203125 108.96875 60.203125 C 109.023438 60.203125 109.074219 60.199219 109.117188 60.195312 C 109.484375 60.152344 109.613281 60.070312 110.125 59.566406 C 110.320312 59.367188 110.566406 59.144531 110.664062 59.066406 C 111.074219 58.726562 111.308594 58.4375 111.542969 57.964844 C 111.785156 57.488281 112.035156 57.132812 112.542969 56.5625 C 112.699219 56.378906 112.886719 56.148438 112.953125 56.050781 C 113.152344 55.746094 113.414062 55.433594 113.558594 55.316406 C 114.042969 54.941406 114.359375 54.570312 114.679688 54.003906 C 114.757812 53.863281 114.875 53.664062 114.941406 53.554688 C 115.171875 53.167969 115.226562 53 115.222656 52.699219 C 115.214844 52.441406 115.210938 52.421875 115.101562 52.246094 C 114.945312 52.003906 114.664062 51.757812 114.382812 51.632812 C 114.035156 51.476562 113.425781 51.277344 113.234375 51.257812 C 113.207031 51.257812 113.179688 51.253906 113.15625 51.253906 C 113.058594 51.253906 112.996094 51.277344 112.824219 51.355469 C 112.695312 51.417969 112.511719 51.480469 112.414062 51.5 C 112.230469 51.535156 112.1875 51.574219 112.050781 51.804688 C 111.980469 51.917969 111.972656 51.972656 111.976562 52.148438 C 111.980469 52.347656 112 52.414062 112.164062 52.78125 C 112.195312 52.855469 112.210938 53.042969 112.222656 53.515625 L 112.234375 54.15625 L 112.128906 54.378906 C 111.980469 54.699219 111.753906 54.925781 111.269531 55.25 C 111.21875 55.28125 111.152344 55.324219 111.121094 55.347656 C 110.878906 55.507812 110.675781 55.679688 110.40625 55.945312 C 110.050781 56.292969 109.839844 56.417969 109.527344 56.46875 C 109.46875 56.476562 109.421875 56.484375 109.382812 56.484375 C 109.226562 56.484375 109.167969 56.40625 109.03125 56.136719 C 108.957031 55.980469 108.890625 55.84375 108.890625 55.832031 C 108.890625 55.820312 108.863281 55.753906 108.832031 55.691406 C 108.796875 55.621094 108.71875 55.453125 108.660156 55.3125 C 108.601562 55.167969 108.457031 54.839844 108.339844 54.582031 C 107.859375 53.535156 107.769531 53.316406 107.511719 52.566406 C 107.433594 52.332031 107.367188 52.125 107.367188 52.097656 C 107.367188 52.074219 107.347656 52.007812 107.320312 51.957031 C 107.296875 51.902344 107.210938 51.664062 107.132812 51.425781 C 106.957031 50.914062 106.703125 50.410156 106.398438 49.984375 C 105.878906 49.253906 105.640625 49.074219 104.753906 48.75 C 104.535156 48.671875 104.289062 48.574219 104.207031 48.535156 C 104.125 48.492188 103.996094 48.429688 103.925781 48.394531 C 103.71875 48.292969 103.515625 48.09375 103.535156 48.007812 C 103.539062 47.96875 103.574219 47.8125 103.605469 47.65625 C 103.640625 47.5 103.675781 47.25 103.691406 47.101562 C 103.746094 46.582031 103.871094 46.210938 104.042969 46.046875 C 104.238281 45.863281 104.65625 45.742188 105.242188 45.707031 C 105.714844 45.679688 105.90625 45.628906 106.015625 45.511719 C 106.164062 45.34375 106.191406 45.277344 106.210938 44.945312 C 106.226562 44.757812 106.261719 44.535156 106.296875 44.429688 C 106.351562 44.265625 106.355469 44.222656 106.324219 44.105469 C 106.292969 43.984375 106.292969 43.964844 106.363281 43.84375 C 106.433594 43.722656 106.433594 43.691406 106.425781 43.382812 C 106.410156 42.996094 106.425781 42.964844 106.691406 42.863281 C 106.785156 42.828125 106.898438 42.765625 106.945312 42.730469 C 107.019531 42.667969 107.03125 42.640625 107.03125 42.511719 C 107.027344 42.375 107.007812 42.328125 106.777344 41.996094 C 106.453125 41.511719 106.390625 41.355469 106.386719 40.988281 C 106.382812 40.832031 106.398438 40.617188 106.417969 40.511719 C 106.4375 40.402344 106.449219 40.1875 106.449219 40.03125 C 106.441406 39.722656 106.433594 39.6875 106.179688 39.199219 C 106.101562 39.046875 105.988281 38.796875 105.929688 38.652344 C 105.773438 38.265625 105.722656 38.160156 105.613281 38.027344 C 105.5625 37.964844 105.5 37.855469 105.480469 37.792969 C 105.382812 37.484375 105.261719 37.335938 104.976562 37.152344 C 104.488281 36.839844 104.03125 36.6875 103.164062 36.554688 C 102.761719 36.488281 102.480469 36.464844 102.046875 36.464844 Z M 102.046875 36.464844 " fill-opacity="1" fill-rule="nonzero"/></g><g fill="rgb(100%, 55.288696%, 33.329773%)" fill-opacity="0.4"><g transform="translate(42.141973, 125.230685)"><g><path d="M 9.101562 0.226562 L 9.507812 0.226562 C 13.402344 0.203125 15.621094 -2.332031 15.78125 -4.84375 C 15.960938 -7.472656 13.96875 -10.414062 9.171875 -11.027344 L 9.125 -11.027344 C 7.382812 -11.230469 5.570312 -12.089844 5.660156 -13.359375 C 5.726562 -14.265625 7.085938 -15.101562 9.554688 -14.988281 L 9.621094 -14.988281 C 10.980469 -14.988281 12.613281 -14.332031 13.449219 -13.722656 L 15.398438 -16.4375 C 14.105469 -17.367188 11.839844 -18.316406 9.667969 -18.316406 C 4.867188 -18.566406 2.535156 -16.121094 2.332031 -13.628906 C 2.21875 -12.179688 2.832031 -10.753906 4.007812 -9.667969 C 5.164062 -8.605469 6.816406 -7.925781 8.761719 -7.722656 C 11.410156 -7.359375 12.519531 -6.136719 12.453125 -5.070312 C 12.386719 -4.097656 11.34375 -3.125 9.464844 -3.125 L 9.351562 -3.125 C 9.328125 -3.125 6.859375 -2.988281 5.34375 -4.234375 C 4.957031 -4.527344 4.640625 -4.890625 4.347656 -5.320312 L 1.585938 -3.441406 C 2.039062 -2.761719 2.605469 -2.152344 3.238281 -1.628906 C 5.296875 0.046875 8.015625 0.226562 9.101562 0.226562 Z M 9.101562 0.226562 "/></g></g></g><g fill="rgb(100%, 55.288696%, 33.329773%)" fill-opacity="0.4"><g transform="translate(59.506968, 125.230685)"><g><path d="M 9.394531 -18.113281 L 1.585938 -18.113281 L 1.585938 0 L 4.980469 0 L 4.980469 -4.503906 L 9.394531 -4.503906 C 14.175781 -4.503906 15.734375 -7.5625 15.734375 -11.320312 C 15.734375 -15.078125 14.015625 -18.113281 9.394531 -18.113281 Z M 11.707031 -8.625 C 11.320312 -8.128906 10.550781 -7.902344 9.394531 -7.902344 L 4.980469 -7.902344 L 4.980469 -14.738281 L 9.394531 -14.738281 C 11.070312 -14.738281 11.523438 -14.175781 11.683594 -13.992188 C 12.113281 -13.449219 12.339844 -12.5 12.339844 -11.320312 C 12.339844 -10.074219 12.113281 -9.125 11.707031 -8.625 Z M 11.707031 -8.625 "/></g></g></g><g fill="rgb(100%, 55.288696%, 33.329773%)" fill-opacity="0.4"><g transform="translate(76.826683, 125.230685)"><g><path d="M 10.054688 -18.339844 C 4.9375 -18.339844 0.792969 -14.195312 0.792969 -9.078125 C 0.792969 -3.960938 4.9375 0.179688 10.054688 0.179688 C 15.171875 0.179688 19.3125 -3.960938 19.3125 -9.078125 C 19.3125 -14.195312 15.171875 -18.339844 10.054688 -18.339844 Z M 10.054688 -14.875 C 13.269531 -14.875 15.53125 -12.273438 15.53125 -9.078125 C 15.53125 -5.886719 13.269531 -3.28125 10.054688 -3.28125 C 6.859375 -3.28125 4.597656 -5.886719 4.597656 -9.078125 C 4.597656 -12.273438 6.859375 -14.875 10.054688 -14.875 Z M 10.054688 -14.875 "/></g></g></g><g fill="rgb(100%, 55.288696%, 33.329773%)" fill-opacity="0.4"><g transform="translate(96.931133, 125.230685)"><g><path d="M 15.734375 -11.320312 C 15.734375 -15.078125 14.015625 -18.113281 9.394531 -18.113281 L 1.585938 -18.113281 L 1.585938 0 L 4.980469 0 L 4.980469 -4.503906 L 9.394531 -4.503906 C 9.804688 -4.503906 10.1875 -4.527344 10.550781 -4.574219 L 12.179688 0 L 15.734375 0 L 13.675781 -5.796875 C 15.171875 -7.042969 15.734375 -9.058594 15.734375 -11.320312 Z M 4.980469 -7.902344 L 4.980469 -14.738281 L 9.394531 -14.738281 C 11.070312 -14.738281 11.523438 -14.175781 11.683594 -13.992188 C 12.113281 -13.449219 12.339844 -12.5 12.339844 -11.320312 C 12.339844 -10.074219 12.113281 -9.125 11.707031 -8.625 C 11.320312 -8.128906 10.550781 -7.902344 9.394531 -7.902344 Z M 4.980469 -7.902344 "/></g></g></g><g fill="rgb(100%, 55.288696%, 33.329773%)" fill-opacity="0.4"><g transform="translate(114.250844, 125.230685)"><g><path d="M 15.191406 -18.113281 L 1.585938 -18.113281 L 1.585938 -14.738281 L 6.703125 -14.738281 L 6.703125 0 L 10.074219 0 L 10.074219 -14.738281 L 15.191406 -14.738281 Z M 15.191406 -18.113281 "/></g></g></g><g fill="rgb(100%, 55.288696%, 33.329773%)" fill-opacity="0.4"><g transform="translate(131.027193, 125.230685)"><g><path d="M 11.660156 -18.136719 L 8.332031 -10.257812 L 4.980469 -18.136719 L 1.585938 -18.136719 L 6.632812 -6.273438 L 6.632812 0 L 10.007812 0 L 10.007812 -6.273438 L 15.035156 -18.136719 Z M 11.660156 -18.136719 "/></g></g></g><g fill="rgb(88.62915%, 63.139343%, 39.608765%)" fill-opacity="1"><g transform="translate(43.463149, 124.723534)"><g><path d="M 9.101562 0.226562 L 9.507812 0.226562 C 13.402344 0.203125 15.621094 -2.332031 15.78125 -4.84375 C 15.960938 -7.472656 13.96875 -10.414062 9.171875 -11.027344 L 9.125 -11.027344 C 7.382812 -11.230469 5.570312 -12.089844 5.660156 -13.359375 C 5.726562 -14.265625 7.085938 -15.101562 9.554688 -14.988281 L 9.621094 -14.988281 C 10.980469 -14.988281 12.613281 -14.332031 13.449219 -13.722656 L 15.398438 -16.4375 C 14.105469 -17.367188 11.839844 -18.316406 9.667969 -18.316406 C 4.867188 -18.566406 2.535156 -16.121094 2.332031 -13.628906 C 2.21875 -12.179688 2.832031 -10.753906 4.007812 -9.667969 C 5.164062 -8.605469 6.816406 -7.925781 8.761719 -7.722656 C 11.410156 -7.359375 12.519531 -6.136719 12.453125 -5.070312 C 12.386719 -4.097656 11.34375 -3.125 9.464844 -3.125 L 9.351562 -3.125 C 9.328125 -3.125 6.859375 -2.988281 5.34375 -4.234375 C 4.957031 -4.527344 4.640625 -4.890625 4.347656 -5.320312 L 1.585938 -3.441406 C 2.039062 -2.761719 2.605469 -2.152344 3.238281 -1.628906 C 5.296875 0.046875 8.015625 0.226562 9.101562 0.226562 Z M 9.101562 0.226562 "/></g></g></g><g fill="rgb(88.62915%, 63.139343%, 39.608765%)" fill-opacity="1"><g transform="translate(60.828143, 124.723534)"><g><path d="M 9.394531 -18.113281 L 1.585938 -18.113281 L 1.585938 0 L 4.980469 0 L 4.980469 -4.503906 L 9.394531 -4.503906 C 14.175781 -4.503906 15.734375 -7.5625 15.734375 -11.320312 C 15.734375 -15.078125 14.015625 -18.113281 9.394531 -18.113281 Z M 11.707031 -8.625 C 11.320312 -8.128906 10.550781 -7.902344 9.394531 -7.902344 L 4.980469 -7.902344 L 4.980469 -14.738281 L 9.394531 -14.738281 C 11.070312 -14.738281 11.523438 -14.175781 11.683594 -13.992188 C 12.113281 -13.449219 12.339844 -12.5 12.339844 -11.320312 C 12.339844 -10.074219 12.113281 -9.125 11.707031 -8.625 Z M 11.707031 -8.625 "/></g></g></g><g fill="rgb(88.62915%, 63.139343%, 39.608765%)" fill-opacity="1"><g transform="translate(78.147858, 124.723534)"><g><path d="M 10.054688 -18.339844 C 4.9375 -18.339844 0.792969 -14.195312 0.792969 -9.078125 C 0.792969 -3.960938 4.9375 0.179688 10.054688 0.179688 C 15.171875 0.179688 19.3125 -3.960938 19.3125 -9.078125 C 19.3125 -14.195312 15.171875 -18.339844 10.054688 -18.339844 Z M 10.054688 -14.875 C 13.269531 -14.875 15.53125 -12.273438 15.53125 -9.078125 C 15.53125 -5.886719 13.269531 -3.28125 10.054688 -3.28125 C 6.859375 -3.28125 4.597656 -5.886719 4.597656 -9.078125 C 4.597656 -12.273438 6.859375 -14.875 10.054688 -14.875 Z M 10.054688 -14.875 "/></g></g></g><g fill="rgb(88.62915%, 63.139343%, 39.608765%)" fill-opacity="1"><g transform="translate(98.252308, 124.723534)"><g><path d="M 15.734375 -11.320312 C 15.734375 -15.078125 14.015625 -18.113281 9.394531 -18.113281 L 1.585938 -18.113281 L 1.585938 0 L 4.980469 0 L 4.980469 -4.503906 L 9.394531 -4.503906 C 9.804688 -4.503906 10.1875 -4.527344 10.550781 -4.574219 L 12.179688 0 L 15.734375 0 L 13.675781 -5.796875 C 15.171875 -7.042969 15.734375 -9.058594 15.734375 -11.320312 Z M 4.980469 -7.902344 L 4.980469 -14.738281 L 9.394531 -14.738281 C 11.070312 -14.738281 11.523438 -14.175781 11.683594 -13.992188 C 12.113281 -13.449219 12.339844 -12.5 12.339844 -11.320312 C 12.339844 -10.074219 12.113281 -9.125 11.707031 -8.625 C 11.320312 -8.128906 10.550781 -7.902344 9.394531 -7.902344 Z M 4.980469 -7.902344 "/></g></g></g><g fill="rgb(88.62915%, 63.139343%, 39.608765%)" fill-opacity="1"><g transform="translate(115.57202, 124.723534)"><g><path d="M 15.191406 -18.113281 L 1.585938 -18.113281 L 1.585938 -14.738281 L 6.703125 -14.738281 L 6.703125 0 L 10.074219 0 L 10.074219 -14.738281 L 15.191406 -14.738281 Z M 15.191406 -18.113281 "/></g></g></g><g fill="rgb(88.62915%, 63.139343%, 39.608765%)" fill-opacity="1"><g transform="translate(132.348369, 124.723534)"><g><path d="M 11.660156 -18.136719 L 8.332031 -10.257812 L 4.980469 -18.136719 L 1.585938 -18.136719 L 6.632812 -6.273438 L 6.632812 0 L 10.007812 0 L 10.007812 -6.273438 L 15.035156 -18.136719 Z M 11.660156 -18.136719 "/></g></g></g><g fill="rgb(100%, 100%, 100%)" fill-opacity="0.4"><g transform="translate(78.515353, 151.710989)"><g><path d="M 16.660156 -18.109375 L 12.949219 -18.109375 L 9.121094 -8.988281 L 5.320312 -18.109375 L 1.585938 -18.109375 L 1.585938 0 L 4.980469 0 L 4.980469 -10.003906 L 7.265625 -4.550781 L 10.980469 -4.550781 L 13.289062 -10.050781 L 13.289062 0 L 16.660156 0 Z M 16.660156 -18.109375 "/></g></g></g><g fill="rgb(100%, 100%, 100%)" fill-opacity="0.4"><g transform="translate(96.751374, 151.710989)"><g><path d="M 12.089844 -14.757812 L 12.089844 -18.132812 L 1.585938 -18.132812 L 1.585938 0 L 12.089844 0 L 12.089844 -3.371094 L 4.980469 -3.371094 L 4.980469 -7.402344 L 9.214844 -7.402344 L 9.214844 -10.777344 L 4.980469 -10.777344 L 4.980469 -14.757812 Z M 12.089844 -14.757812 "/></g></g></g><g fill="rgb(0%, 0%, 0%)" fill-opacity="1"><g transform="translate(79.836526, 151.203831)"><g><path d="M 16.660156 -18.109375 L 12.949219 -18.109375 L 9.121094 -8.988281 L 5.320312 -18.109375 L 1.585938 -18.109375 L 1.585938 0 L 4.980469 0 L 4.980469 -10.003906 L 7.265625 -4.550781 L 10.980469 -4.550781 L 13.289062 -10.050781 L 13.289062 0 L 16.660156 0 Z M 16.660156 -18.109375 "/></g></g></g><g fill="rgb(0%, 0%, 0%)" fill-opacity="1"><g transform="translate(98.072547, 151.203831)"><g><path d="M 12.089844 -14.757812 L 12.089844 -18.132812 L 1.585938 -18.132812 L 1.585938 0 L 12.089844 0 L 12.089844 -3.371094 L 4.980469 -3.371094 L 4.980469 -7.402344 L 9.214844 -7.402344 L 9.214844 -10.777344 L 4.980469 -10.777344 L 4.980469 -14.757812 Z M 12.089844 -14.757812 "/></g></g></g></svg>